<svg width="320" height="320" viewBox="0 0 320 320" fill="none" xmlns="http://www.w3.org/2000/svg">
<path fill-rule="evenodd" clip-rule="evenodd" d="M320 160C320 248.366 248.366 320 160 320C71.6344 320 0 248.366 0 160C0 71.6344 71.6344 0 160 0C248.366 0 320 71.6344 320 160ZM167.518 115.036L219.381 63.5653C223.309 59.6667 229.657 59.7004 233.544 63.6404L256.077 86.4827C259.917 90.3745 259.919 96.628 256.083 100.523L204.438 152.956C200.594 156.859 200.605 163.129 204.464 167.018L255.935 218.881C259.833 222.809 259.8 229.157 255.86 233.044L233.017 255.577C229.126 259.417 222.872 259.419 218.977 255.583L166.544 203.938C162.641 200.094 156.371 200.105 152.482 203.964L100.619 255.435C96.6908 259.333 90.3429 259.3 86.4561 255.36L63.9226 232.517C60.0833 228.626 60.0809 222.372 63.9171 218.477L115.562 166.044C119.406 162.141 119.395 155.871 115.536 151.982L64.0653 100.119C60.1667 96.1908 60.2003 89.8429 64.1404 85.9561L86.9826 63.4226C90.8744 59.5834 97.128 59.581 101.023 63.4172L153.456 115.062C157.359 118.907 163.629 118.895 167.518 115.036Z" fill= "rgb(0 54 82)"/>
</svg>
